<?xml version="1.0" encoding="utf-8"?>
<svg xmlns="http://www.w3.org/2000/svg" viewBox="0 0 215 35" xml:space="preserve"><path d="M7.1 26.2H2.6V8.8h18.6c.9 0 1.6.3 2.3.9.6.6.9 1.3.9 2.2V23c0 .9-.3 1.6-.9 2.2-.6.6-1.4.9-2.3.9H9l-1.3-3.7h10.9c.3 0 .7-.1.9-.4.3-.2.4-.5.4-.9v-7.4c0-.3-.1-.6-.4-.9-.3-.2-.6-.4-.9-.4H7.1v13.8zm36.1-2.5h-7L34.9 20h6.4l-3.5-6.8-6.7 13H26l9-17.3h4.5c.9 0 1.5.4 1.9 1.2l8.3 16.1h-5.1l-1.4-2.5zm9 2.5-9-17.3h5.7L55 21.3l6.1-12.4h5.7l-9 17.3h-5.6zm20-5c0 .3.1.6.4.9.3.2.6.4.9.4h13.6v3.7H71c-.9 0-1.6-.3-2.3-.9-.6-.6-.9-1.3-.9-2.2V11.9c0-.9.3-1.6.9-2.2.6-.6 1.4-.9 2.3-.9h16.1v3.7H73.5c-.3 0-.7.1-.9.4-.3.2-.4.5-.4.9v7.4zm12-5.6 1.9 3.7H74.7l-1.6-3.7h11.1zm22.4 5.6v-1.9h-6.3l-1.9-3.7H111V23c0 .9-.3 1.6-.9 2.2-.6.6-1.4.9-2.3.9H92.6c-.9 0-1.6-.3-2.3-.9-.6-.6-.9-1.3-.9-2.2V11.9c0-.9.3-1.6.9-2.2.6-.6 1.4-.9 2.3-.9H108c.9 0 1.6.3 2.3.9.6.6.9 1.3.9 2.2v.6h-16c-.3 0-.7.1-.9.4-.3.2-.4.5-.4.9v7.4c0 .3.1.6.4.9.3.2.6.4.9.4h10.2c.3 0 .7-.1.9-.4.2-.3.3-.6.3-.9zm23 2.5h-7l-1.3-3.7h6.4l-3.5-6.8-6.7 13h-5.1l9-17.3h4.5c.9 0 1.5.4 1.9 1.2l8.3 16.1H131l-1.4-2.5zm13.6-7.4v9.9h-5.1V8.8h5.1c.9 0 1.4.2 1.6.6l6.4 9 6.4-9c.2-.4.7-.6 1.6-.6h5.1v17.3h-5.1v-9.9l-6.6 9.9H150l-6.8-9.8zm23.5 9.9V8.8H184c.9 0 1.6.3 2.3.9.6.6.9 1.3.9 2.2v4.3l.3.3c.6.6.9 1.3.9 2.2V23c0 .9-.3 1.6-.9 2.2-.6.6-1.4.9-2.3.9h-18.5zm4.5-3.8h11.5c.3 0 .7-.1.9-.4.3-.2.4-.5.4-.9v-.6c0-.3-.1-.6-.4-.9-.3-.2-.6-.4-.9-.4h-9.6l-1.3-3.7h9.6c.3 0 .7-.1.9-.4.3-.2.4-.5.4-.9v-.6c0-.3-.1-.6-.4-.9-.3-.2-.6-.4-.9-.4h-10.2v10.1zm34.8 1.3h-7l-1.3-3.7h6.4l-3.5-6.8-6.7 13h-5.1l9-17.3h4.5c.9 0 1.5.4 1.9 1.2l8.3 16.1h-5.1l-1.4-2.5z" fill="#fff"/></svg>