<?xml version="1.0" encoding="utf-8"?>
<svg version="1.1" xmlns="http://www.w3.org/2000/svg" xmlns:xlink="http://www.w3.org/1999/xlink" x="0px" y="0px" viewBox="0 0 215 35" style="enable-background:new 0 0 215 35;" xml:space="preserve">
<path fill="#fff" d="M8,32.5c-0.2,0-0.4,0-0.6,0H2.1L6.8,2.8h4.5c0.2,0,0.7,0,1.4,0L8,32.5z M18.1,17.6c2.2-13.8,2.3-14.8-2.3-14.9 h-1.2L9.8,32.5C15.7,32.5,16.1,30,18.1,17.6z M27.4,2.7c-0.3,0-0.6,0-0.7,0h-0.3C22.2,2.9,22,4.4,20,17.3l-0.1,0.6 c-2.3,14.7-2.3,14.6,3.6,14.6l0.8-5.3l1.6-9.8l2.3-14.6C27.9,2.7,27.6,2.7,27.4,2.7z M25.3,32.5c5.5,0,5.8,0.1,7.8-11.9l0,0 c-3.4,0-6.3,2.5-6.8,5.8L25.3,32.5z M31.1,2.7h-1.1l-2,12.4h5.9C35.7,3.7,35.5,2.8,31.1,2.7z M63.9,27.6c-0.3,0.9-0.8,1.7-1.4,2.3 c-0.6,0.6-1.4,1.1-2.2,1.5c-0.9,0.4-1.8,0.5-2.9,0.5h-6.5V2.8h6.6c1,0,1.9,0.2,2.7,0.5s1.6,0.8,2.2,1.4C63,5.3,63.5,6,63.8,6.9 c0.4,0.8,0.5,1.7,0.5,2.7v15.2C64.4,25.8,64.2,26.8,63.9,27.6z M60.2,9.5c0-0.8-0.3-1.5-0.9-2.1S58,6.7,57.2,6.7H55v21.4h2.1 c1.1,0,1.9-0.3,2.4-0.9c0.5-0.6,0.7-1.4,0.7-2.5L60.2,9.5L60.2,9.5z M78.2,32L77,25.7h-5.4L70.4,32H66l6.5-29.2h3.6L82.7,32H78.2z M74.3,11.2l-2,10.6h3.9L74.3,11.2z M91.7,32h-3.5l-6-29.2h4.4L90,23.1l3.4-20.4h4.4L91.7,32z M100,32V2.8h12.5v3.9h-8.3v8.6h7.3 v3.9h-7.3v8.7h8.3V32L100,32L100,32z M137,11.1h-4.2c0-0.2,0-0.4,0-0.6c0-0.2,0-0.4,0-0.6c0-0.9-0.2-1.7-0.7-2.3s-1.2-0.9-2.2-0.9 c-0.9,0-1.7,0.3-2.1,0.9c-0.5,0.6-0.7,1.4-0.7,2.3v15.8c0,0.3,0.1,0.6,0.3,0.9c0.2,0.3,0.4,0.5,0.7,0.8c0.3,0.2,0.6,0.4,0.9,0.5 c0.3,0.1,0.6,0.2,1,0.2c0.7,0,1.3-0.2,1.8-0.7c0.5-0.4,0.8-0.8,0.9-1.3s0.1-1,0.1-1.6v-5.1h-3.4v-3.5h7.6v9c0,0.8-0.1,1.5-0.2,2.1 c-0.1,0.6-0.4,1.2-0.8,1.9c-0.7,1-1.5,1.9-2.6,2.4c-1,0.6-2.2,0.9-3.4,0.9c-1.1,0-2.2-0.3-3.2-0.8s-1.9-1.2-2.6-2.1 c-0.6-0.8-1-1.5-1.1-2.3c-0.1-0.7-0.2-1.6-0.2-2.5V9.9c0-1,0.2-2,0.5-2.9c0.3-0.9,0.8-1.7,1.4-2.4c0.6-0.7,1.4-1.2,2.2-1.6 c0.9-0.4,1.8-0.6,2.9-0.6c1.2,0,2.3,0.3,3.4,0.8s1.8,1.3,2.5,2.3c0.5,0.7,0.8,1.3,0.9,1.9c0.2,0.6,0.2,1.3,0.2,2.1L137,11.1 L137,11.1L137,11.1z M151.3,32l-1.2-6.3h-5.4l-1.2,6.3h-4.4l6.5-29.2h3.6l6.5,29.2H151.3z M147.4,11.2l-2,10.6h3.9L147.4,11.2z M172.1,32V14.2l-4.2,12.5h-2.1l-4.2-12.5V32h-4.2V2.8h3.9l5.5,15.5l5.4-15.5h3.9V32H172.1L172.1,32z M193.4,27.7 c-0.3,0.9-0.8,1.6-1.5,2.2c-0.6,0.6-1.4,1.1-2.2,1.5c-0.9,0.4-1.8,0.5-2.9,0.5h-6.4V2.8h6.8c0.9,0,1.8,0.2,2.6,0.5 c0.8,0.4,1.5,0.9,2.1,1.5c0.6,0.6,1.1,1.4,1.4,2.2c0.3,0.8,0.5,1.7,0.5,2.6v2.2c0,1-0.3,1.9-0.8,2.8c-0.5,0.8-1.2,1.5-2.2,1.9 c1,0.6,1.7,1.2,2.2,2c0.5,0.8,0.7,1.7,0.7,2.9v3.4C194,25.9,193.8,26.9,193.4,27.7z M190.1,9.7c0-0.9-0.3-1.7-0.9-2.2 c-0.6-0.5-1.4-0.8-2.3-0.8h-2.3v8.1h2.5c1,0,1.8-0.3,2.3-1c0.5-0.6,0.7-1.4,0.7-2.4V9.7z M190.1,21.5c0-1-0.3-1.7-0.9-2.3 c-0.6-0.5-1.3-0.8-2.3-0.8h-2.3v9.5h2.4c0.9,0,1.6-0.3,2.2-0.8c0.6-0.5,0.9-1.3,0.9-2.2L190.1,21.5L190.1,21.5z M208.4,32l-1.2-6.3 h-5.4l-1.2,6.3h-4.4l6.5-29.2h3.6l6.5,29.2H208.4z M204.5,11.2l-2,10.6h3.9L204.5,11.2z M39.9,3v0.7h-1.4v3.7h-0.9V3.8h-1.4V3H39.9z M44.7,7.5l-0.2-2.6c0-0.3,0-0.8,0-1.2h0c-0.1,0.4-0.2,0.9-0.4,1.3l-0.8,2.5h-0.9l-0.8-2.5c-0.1-0.3-0.2-0.9-0.3-1.3h0 c0,0.4,0,0.8,0,1.2L41,7.5h-0.8L40.5,3h1.3l0.8,2.2c0.1,0.3,0.2,0.7,0.3,1.1h0c0.1-0.4,0.2-0.8,0.3-1.1L44,3h1.3l0.3,4.4H44.7 L44.7,7.5z"/>
</svg>