<?xml version="1.0" encoding="utf-8"?>
<svg version="1.1" xmlns="http://www.w3.org/2000/svg" xmlns:xlink="http://www.w3.org/1999/xlink" x="0px" y="0px" viewBox="0 0 218.6 198.5" style="enable-background:new 0 0 218.6 198.5;" xml:space="preserve">
<style type="text/css">
	.st0{fill:#FFCC00;}
</style>
<path class="st0" d="M39.1,198.5c-1.4,0-2.8,0.1-4.2,0.1H0L31.3,0.4H61c1.2,0,4.7-0.3,9.6-0.2L39.1,198.5z M106.1,99.5 C120.7,7.7,121.8,0.6,90.5,0.3h-7.9L51.3,198.5C90.5,198.4,93.1,181.6,106.1,99.5z M168.2,0c-2.2,0.1-3.8,0.2-4.6,0.2h-2.3 c-27.4,1.3-29.2,11.3-42.7,96.7l-0.6,3.9c-15.4,97.9-15.2,97.6,23.7,97.5l5.6-35.2l10.4-65.5L173.2,0C171.5,0,169.8,0,168.2,0z M154,198.3c36.4-0.1,38.8,0.6,51.7-79.5l0,0c-22.5,0-41.7,16.4-45.2,38.7L154,198.3z M192.8,0.1h-7.5l-13.1,82.7h39.2 C223.4,6.6,222.4,0.5,192.8,0.1z"/>
 </svg>
