<?xml version="1.0" encoding="utf-8"?>
<!DOCTYPE svg PUBLIC "-//W3C//DTD SVG 1.1//EN" "http://www.w3.org/Graphics/SVG/1.1/DTD/svg11.dtd">
<svg version="1.1" id="LogoSign" xmlns="http://www.w3.org/2000/svg" xmlns:xlink="http://www.w3.org/1999/xlink" x="0px" y="0px" width="708.661px" height="113.386px" viewBox="-255.5 256.5 708.661 113.386" enable-background="new -255.5 256.5 708.661 113.386" xml:space="preserve">
<path fill="#FFFFFF" d="M-217.464,361.922c-0.657,0.02-1.32,0.034-1.993,0.034h-16.766l15-95.045h14.245 c0.568,0,2.245-0.144,4.583-0.106L-217.464,361.922z M-185.326,314.444c6.976-44.034,7.509-47.396-7.504-47.567h-3.77l-15,95.045 C-192.843,361.888-191.563,353.806-185.326,314.444z M-155.551,266.757c-1.074,0.033-1.838,0.086-2.185,0.086h-1.098 c-13.117,0.629-13.999,5.406-20.466,46.382l-0.295,1.872c-7.409,46.943-7.298,46.79,11.374,46.756l2.671-16.857l4.981-31.434 l7.419-46.825C-153.988,266.743-154.787,266.748-155.551,266.757z M-162.359,361.853c17.455-0.032,18.618,0.282,24.789-38.142l0,0 c-10.809,0-20.011,7.864-21.697,18.54L-162.359,361.853z M-143.759,266.809h-3.599l-6.261,39.675h18.782 C-129.098,269.897-129.544,266.963-143.759,266.809z M-38.898,346.438c-1.075,2.846-2.593,5.296-4.556,7.346 c-1.963,2.053-4.324,3.637-7.08,4.757c-2.758,1.119-5.866,1.679-9.323,1.679h-20.749v-93.326h21.17c3.084,0,5.959,0.56,8.622,1.679 c2.664,1.119,4.999,2.636,7.01,4.548c2.009,1.913,3.597,4.197,4.767,6.856c1.167,2.658,1.753,5.527,1.753,8.605v48.552 C-37.285,340.49-37.824,343.592-38.898,346.438z M-50.604,288.58c0-2.705-0.959-4.897-2.874-6.576 c-1.916-1.679-4.184-2.518-6.8-2.518h-7.01v68.281h6.59c3.551,0,6.121-0.909,7.712-2.729c1.588-1.819,2.384-4.453,2.384-7.906 V288.58H-50.604z M6.977,360.22l-3.785-20.009h-17.385l-3.785,20.009h-14.16l20.89-93.326H0.389l20.89,93.326H6.977z M-5.502,293.757l-6.309,34H0.807L-5.502,293.757z M50.018,360.22H38.802l-19.207-93.326h14.16l10.936,65.063l10.795-65.063h14.16 L50.018,360.22z M76.471,360.22v-93.326h39.957v12.593H89.79v27.424h23.414v12.452H89.79v27.844h26.638v13.012L76.471,360.22 L76.471,360.22z M194.845,293.617h-13.32c0-0.652,0.022-1.305,0.07-1.959c0.046-0.652,0.07-1.305,0.07-1.958 c0-2.891-0.771-5.317-2.314-7.276c-1.543-1.958-3.855-2.939-6.94-2.939c-2.993,0-5.282,0.984-6.87,2.951 c-1.591,1.968-2.384,4.401-2.384,7.304v50.579c0,1.03,0.28,2.014,0.841,2.948c0.561,0.937,1.308,1.758,2.244,2.459 c0.934,0.704,1.914,1.266,2.944,1.685c1.027,0.422,2.054,0.632,3.084,0.632c2.149,0,4.112-0.751,5.888-2.261 c1.683-1.319,2.664-2.661,2.944-4.027c0.28-1.367,0.421-3.086,0.421-5.162v-16.395h-10.936v-11.333h24.255v28.808 c0,2.599-0.188,4.827-0.561,6.681c-0.374,1.856-1.262,3.898-2.663,6.124c-2.151,3.341-4.885,5.94-8.202,7.794 c-3.319,1.856-6.94,2.782-10.865,2.782c-3.554,0-6.988-0.839-10.305-2.518c-3.319-1.679-6.052-3.918-8.201-6.716 c-1.963-2.518-3.154-4.943-3.575-7.276c-0.421-2.33-0.631-5.037-0.631-8.115v-46.73c0-3.264,0.536-6.343,1.613-9.234 c1.074-2.891,2.593-5.409,4.556-7.555c1.963-2.144,4.346-3.823,7.151-5.037c2.805-1.212,5.888-1.819,9.253-1.819 c3.925,0,7.501,0.864,10.725,2.588c3.224,1.727,5.911,4.222,8.061,7.485c1.495,2.239,2.5,4.267,3.015,6.086 c0.513,1.819,0.723,4.082,0.631,6.787L194.845,293.617L194.845,293.617L194.845,293.617z M240.691,360.22l-3.785-20.009h-17.385 l-3.785,20.009h-14.16l20.89-93.326h11.637l20.89,93.326H240.691z M228.213,293.757l-6.309,34h12.618L228.213,293.757z M307.019,360.22v-56.807l-13.32,39.877h-6.73l-13.32-39.877v56.807h-13.318v-93.326h12.478l17.665,49.531l17.385-49.531h12.478 v93.326H307.019L307.019,360.22z M375.264,346.717c-1.114,2.753-2.671,5.131-4.666,7.136c-1.998,2.008-4.366,3.569-7.104,4.688 c-2.741,1.119-5.781,1.679-9.124,1.679h-20.476v-93.326h21.869c2.971,0,5.757,0.584,8.357,1.749c2.6,1.167,4.853,2.753,6.756,4.757 c1.904,2.007,3.389,4.337,4.458,6.995c1.066,2.658,1.602,5.481,1.602,8.466v7.136c0,3.266-0.819,6.227-2.454,8.885 c-1.636,2.658-3.95,4.736-6.94,6.227c3.084,1.772,5.42,3.896,7.01,6.367c1.588,2.472,2.384,5.527,2.384,9.164v10.913 C376.936,340.911,376.377,343.966,375.264,346.717z M364.738,288.964c0-3.018-0.96-5.352-2.875-7.003 c-1.916-1.648-4.324-2.475-7.221-2.475h-7.431v26.025h7.852c3.271,0,5.7-1.012,7.291-3.041c1.588-2.026,2.384-4.596,2.384-7.709 V288.964z M364.738,326.73c0-3.107-0.935-5.532-2.803-7.273c-1.871-1.741-4.3-2.613-7.291-2.613h-7.431v30.363h7.57 c2.803,0,5.164-0.846,7.08-2.54c1.914-1.694,2.875-4,2.875-6.922V326.73L364.738,326.73z M423.062,360.22l-3.785-20.009h-17.385 l-3.785,20.009h-14.16l20.89-93.326h11.637l20.89,93.326H423.062z M410.584,293.757l-6.309,34h12.618L410.584,293.757z M-115.494,267.759v2.345h-4.533v11.828h-2.814v-11.828h-4.533v-2.345H-115.494z M-100.175,281.932l-0.521-8.337 c-0.052-1.094-0.052-2.448-0.104-3.96h-0.156c-0.365,1.251-0.782,2.919-1.198,4.221l-2.553,7.868h-2.918l-2.553-8.077 c-0.261-1.094-0.677-2.762-0.99-4.013h-0.157c0,1.303-0.052,2.658-0.104,3.96l-0.521,8.337h-2.71l1.042-14.173h4.221l2.449,6.93 c0.313,1.094,0.573,2.136,0.938,3.595h0.052c0.365-1.302,0.677-2.501,0.99-3.543l2.449-6.982h4.064l1.094,14.173L-100.175,281.932 L-100.175,281.932z"/>
</svg>