<?xml version="1.0" encoding="utf-8"?>
<svg xmlns="http://www.w3.org/2000/svg" viewBox="0 0 708.7 113.4" xml:space="preserve"><path d="M23.7 85.8H9V28.9h61c2.9 0 5.4 1 7.4 3s3.1 4.4 3.1 7.2v36.6c0 2.8-1 5.2-3.1 7.2-2 2-4.5 3-7.4 3H30l-4.2-12.2h35.8c1.1 0 2.1-.4 3-1.2.8-.8 1.2-1.8 1.2-2.9V45.2c0-1.1-.4-2.1-1.2-2.9-.8-.8-1.8-1.2-3-1.2H23.7v44.7zm118.6-8.1h-23.1L115 65.5h21l-11.6-22.4-22.1 42.7H85.5L115 28.9h14.7c2.8 0 4.9 1.4 6.3 4.1l27.3 52.8h-16.8l-4.2-8.1zm29.4 8.1-29.4-56.9H161l20.2 40.8 20.2-40.8h18.7l-29.4 56.9h-19zm66-16.2c0 1.1.4 2.1 1.2 2.9.8.8 1.8 1.2 3 1.2h44.6v12.2h-53c-2.9 0-5.4-1-7.4-3s-3.1-4.4-3.1-7.2V39.1c0-2.8 1-5.2 3.1-7.2 2-2 4.5-3 7.4-3h53v12.2h-44.6c-1.1 0-2.1.4-3 1.2-.8.8-1.2 1.8-1.2 2.9v24.4zm39.2-18.3 6.1 12.2h-37.1l-5.2-12.2h36.2zm73.8 18.3v-6.1H330l-6.1-12.2h41.5v24.4c0 2.8-1 5.2-3.1 7.2-2 2-4.5 3-7.4 3h-50.5c-2.9 0-5.4-1-7.4-3s-3.1-4.4-3.1-7.2V39.1c0-2.8 1-5.2 3.1-7.2 2-2 4.5-3 7.4-3h50.5c2.9 0 5.4 1 7.4 3s3.1 4.4 3.1 7.2v2h-52.6c-1.1 0-2.1.4-3 1.2-.8.8-1.2 1.8-1.2 2.9v24.4c0 1.1.4 2.1 1.2 2.9.8.8 1.8 1.2 3 1.2h33.7c1.1 0 2.1-.4 3-1.2.7-.9 1.2-1.8 1.2-2.9zm75.3 8.1h-23.1l-4.2-12.2h21l-11.6-22.4L386 85.8h-16.8l29.4-56.9h14.7c2.8 0 4.9 1.4 6.3 4.1l27.3 52.8h-16.8l-4.1-8.1zm44.6-24.4v32.5H454V28.9h16.6c2.8 0 4.6.7 5.3 2l21 29.5L518 31c.7-1.4 2.4-2 5.2-2h16.6v56.9h-16.6V53.3l-21.6 32.5h-8.5l-22.5-32.5zm77.5 32.5V28.9h56.8c2.9 0 5.4 1 7.4 3s3.1 4.4 3.1 7.2v14.2c.4.3.8.6 1.1 1 2 2 3.1 4.4 3.1 7.2v14.2c0 2.8-1 5.2-3.1 7.2-2 2-4.5 3-7.4 3h-61zm14.8-12.2h37.9c1.1 0 2.1-.4 3-1.2.8-.8 1.2-1.8 1.2-2.9v-2c0-1.1-.4-2.1-1.2-2.9-.8-.8-1.8-1.2-3-1.2h-31.5L565 51.3h31.5c1.1 0 2.1-.4 3-1.2.8-.8 1.2-1.8 1.2-2.9v-2c0-1.1-.4-2.1-1.2-2.9-.8-.8-1.8-1.2-3-1.2h-33.7v32.5zM677 77.7h-23.1l-4.2-12.2h21l-11.6-22.4L637 85.8h-16.8l29.4-56.9h14.7c2.8 0 4.9 1.4 6.3 4.1L698 85.8h-16.8l-4.2-8.1z" fill="#fff"/></svg>