<?xml version="1.0" encoding="utf-8"?>
<svg version="1.1" xmlns="http://www.w3.org/2000/svg" xmlns:xlink="http://www.w3.org/1999/xlink" x="0px" y="0px" viewBox="0 0 708.7 113.4" style="enable-background:new 0 0 708.7 113.4;" xml:space="preserve">
<path fill="#FFCC00" d="M36.3,104.6c-0.7,0-1.3,0-2,0H17.5l15-95h14.2c0.6,0,2.2-0.1,4.6-0.1L36.3,104.6z M68.4,57.1 c7-44,7.5-47.4-7.5-47.6h-3.8l-15,95C60.9,104.6,62.2,96.5,68.4,57.1z M98.2,9.4c-1.1,0-1.8,0.1-2.2,0.1h-1.1 c-13.1,0.6-14,5.4-20.5,46.4l-0.3,1.9c-7.4,46.9-7.3,46.8,11.4,46.8l2.7-16.9l5-31.4l7.4-46.8C99.8,9.4,99,9.4,98.2,9.4z M91.4,104.5c17.5,0,18.6,0.3,24.8-38.1l0,0c-10.8,0-20,7.9-21.7,18.5L91.4,104.5z M110,9.5h-3.6l-6.3,39.7h18.8 C124.7,12.6,124.2,9.7,110,9.5z M214.9,89.1c-1.1,2.8-2.6,5.3-4.6,7.3c-2,2.1-4.3,3.6-7.1,4.8c-2.8,1.1-5.9,1.7-9.3,1.7h-20.7V9.6 h21.2c3.1,0,6,0.6,8.6,1.7c2.7,1.1,5,2.6,7,4.5c2,1.9,3.6,4.2,4.8,6.9c1.2,2.7,1.8,5.5,1.8,8.6v48.6 C216.5,83.2,215.9,86.3,214.9,89.1z M203.2,31.3c0-2.7-1-4.9-2.9-6.6c-1.9-1.7-4.2-2.5-6.8-2.5h-7v68.3h6.6c3.6,0,6.1-0.9,7.7-2.7 c1.6-1.8,2.4-4.5,2.4-7.9L203.2,31.3L203.2,31.3z M260.7,102.9l-3.8-20h-17.4l-3.8,20h-14.2l20.9-93.3h11.6l20.9,93.3H260.7z M248.3,36.4l-6.3,34h12.6L248.3,36.4z M303.8,102.9h-11.2L273.4,9.6h14.2l10.9,65.1l10.8-65.1h14.2L303.8,102.9z M330.2,102.9V9.6 h40v12.6h-26.6v27.4H367v12.5h-23.4v27.8h26.6v13L330.2,102.9L330.2,102.9z M448.6,36.3h-13.3c0-0.7,0-1.3,0.1-2 c0-0.7,0.1-1.3,0.1-2c0-2.9-0.8-5.3-2.3-7.3c-1.5-2-3.9-2.9-6.9-2.9c-3,0-5.3,1-6.9,3c-1.6,2-2.4,4.4-2.4,7.3V83c0,1,0.3,2,0.8,2.9 c0.6,0.9,1.3,1.8,2.2,2.5c0.9,0.7,1.9,1.3,2.9,1.7c1,0.4,2.1,0.6,3.1,0.6c2.1,0,4.1-0.8,5.9-2.3c1.7-1.3,2.7-2.7,2.9-4 c0.3-1.4,0.4-3.1,0.4-5.2V62.9h-10.9V51.6h24.3v28.8c0,2.6-0.2,4.8-0.6,6.7c-0.4,1.9-1.3,3.9-2.7,6.1c-2.2,3.3-4.9,5.9-8.2,7.8 c-3.3,1.9-6.9,2.8-10.9,2.8c-3.6,0-7-0.8-10.3-2.5c-3.3-1.7-6.1-3.9-8.2-6.7c-2-2.5-3.2-4.9-3.6-7.3c-0.4-2.3-0.6-5-0.6-8.1V32.4 c0-3.3,0.5-6.3,1.6-9.2c1.1-2.9,2.6-5.4,4.6-7.6c2-2.1,4.3-3.8,7.2-5c2.8-1.2,5.9-1.8,9.3-1.8c3.9,0,7.5,0.9,10.7,2.6 c3.2,1.7,5.9,4.2,8.1,7.5c1.5,2.2,2.5,4.3,3,6.1c0.5,1.8,0.7,4.1,0.6,6.8L448.6,36.3L448.6,36.3L448.6,36.3z M494.5,102.9l-3.8-20 h-17.4l-3.8,20h-14.2l20.9-93.3h11.6l20.9,93.3H494.5z M482,36.4l-6.3,34h12.6L482,36.4z M560.8,102.9V46.1L547.5,86h-6.7 l-13.3-39.9v56.8h-13.3V9.6h12.5l17.7,49.5l17.4-49.5h12.5v93.3L560.8,102.9L560.8,102.9z M629,89.4c-1.1,2.8-2.7,5.1-4.7,7.1 c-2,2-4.4,3.6-7.1,4.7c-2.7,1.1-5.8,1.7-9.1,1.7h-20.5V9.6h21.9c3,0,5.8,0.6,8.4,1.7c2.6,1.2,4.9,2.8,6.8,4.8c1.9,2,3.4,4.3,4.5,7 c1.1,2.7,1.6,5.5,1.6,8.5v7.1c0,3.3-0.8,6.2-2.5,8.9c-1.6,2.7-3.9,4.7-6.9,6.2c3.1,1.8,5.4,3.9,7,6.4c1.6,2.5,2.4,5.5,2.4,9.2v10.9 C630.7,83.6,630.1,86.7,629,89.4z M618.5,31.7c0-3-1-5.4-2.9-7c-1.9-1.6-4.3-2.5-7.2-2.5H601v26h7.9c3.3,0,5.7-1,7.3-3 c1.6-2,2.4-4.6,2.4-7.7L618.5,31.7L618.5,31.7z M618.5,69.4c0-3.1-0.9-5.5-2.8-7.3c-1.9-1.7-4.3-2.6-7.3-2.6H601v30.4h7.6 c2.8,0,5.2-0.8,7.1-2.5c1.9-1.7,2.9-4,2.9-6.9V69.4L618.5,69.4z M676.8,102.9l-3.8-20h-17.4l-3.8,20h-14.2l20.9-93.3h11.6l20.9,93.3 H676.8z M664.3,36.4l-6.3,34h12.6L664.3,36.4z M138.3,10.4v2.3h-4.5v11.8h-2.8V12.8h-4.5v-2.3H138.3z M153.6,24.6l-0.5-8.3 c-0.1-1.1-0.1-2.4-0.1-4h-0.2c-0.4,1.3-0.8,2.9-1.2,4.2l-2.6,7.9h-2.9l-2.6-8.1c-0.3-1.1-0.7-2.8-1-4h-0.2c0,1.3-0.1,2.7-0.1,4 l-0.5,8.3h-2.7l1-14.2h4.2l2.4,6.9c0.3,1.1,0.6,2.1,0.9,3.6h0.1c0.4-1.3,0.7-2.5,1-3.5l2.4-7h4.1l1.1,14.2L153.6,24.6L153.6,24.6z"/>
</svg>
