<?xml version="1.0" encoding="utf-8"?>
<svg xmlns="http://www.w3.org/2000/svg" viewBox="0 0 218 198" xml:space="preserve"><path d="M21.4 149.1H0V48.9h88.6c4.2 0 7.8 1.7 10.8 5.2 3 3.5 4.5 7.7 4.5 12.7v64.4c0 5-1.5 9.2-4.5 12.7s-6.6 5.2-10.8 5.2h-58l-6.1-21.5h51.9c1.7 0 3.1-.7 4.3-2.1 1.2-1.4 1.8-3.1 1.8-5v-43c0-2-.6-3.6-1.8-5-1.2-1.4-2.6-2.1-4.3-2.1h-55v78.7zm175.2-28.6v-10.7h-30l-8.9-21.5H218v43c0 5-1.5 9.2-4.5 12.7s-6.6 5.2-10.8 5.2h-73.3c-4.2 0-7.8-1.7-10.8-5.2-3-3.5-4.5-7.7-4.5-12.7V66.8c0-5 1.5-9.2 4.5-12.7s6.6-5.2 10.8-5.2h73.3c4.2 0 7.8 1.7 10.8 5.2 3 3.5 4.5 7.7 4.5 12.7v3.6h-76.3c-1.7 0-3.1.7-4.3 2.1-1.2 1.4-1.8 3.1-1.8 5v43c0 2 .6 3.6 1.8 5 1.2 1.4 2.6 2.1 4.3 2.1h48.9c1.7 0 3.1-.7 4.3-2.1 1.1-1.4 1.7-3.1 1.7-5z" fill="#00b0fc"/></svg>