<?xml version="1.0" encoding="utf-8"?>
<svg version="1.1" id="Sign" xmlns="http://www.w3.org/2000/svg" xmlns:xlink="http://www.w3.org/1999/xlink" x="0px" y="0px" viewBox="0 0 694.6 198.5" style="enable-background:new 0 0 694.6 198.5;" xml:space="preserve">
<style type="text/css">
	.st0{fill:#FFCC00;}
</style>
<path class="st0" d="M79.3,139.8c-1.3,3.5-3.2,6.5-5.6,9.1c-2.4,2.5-5.3,4.5-8.7,5.9c-3.4,1.4-7.2,2.1-11.5,2.1H27.8V41.7h26.1 c3.8,0,7.4,0.7,10.6,2.1c3.3,1.4,6.2,3.3,8.6,5.6c2.5,2.4,4.4,5.2,5.9,8.5c1.4,3.3,2.2,6.8,2.2,10.6v59.9 C81.3,132.5,80.6,136.3,79.3,139.8z M64.8,68.5c0-3.3-1.2-6-3.5-8.1c-2.4-2.1-5.2-3.1-8.4-3.1h-8.6v84.2h8.1c4.4,0,7.6-1.1,9.5-3.4 c2-2.2,2.9-5.5,2.9-9.8L64.8,68.5L64.8,68.5z M135.9,156.8l-4.7-24.7h-21.4l-4.7,24.7H87.6l25.8-115.1h14.4l25.8,115.1H135.9z M120.5,74.9l-7.8,41.9h15.6L120.5,74.9z M189,156.8h-13.8L151.4,41.7h17.5l13.5,80.3l13.3-80.3h17.5L189,156.8z M221.6,156.8V41.7 h49.3v15.5H238v33.8h28.9v15.4H238v34.4h32.9v16.1L221.6,156.8L221.6,156.8L221.6,156.8z M367.6,74.7h-16.4c0-0.8,0-1.6,0.1-2.4 c0.1-0.8,0.1-1.6,0.1-2.4c0-3.6-1-6.6-2.9-9c-1.9-2.4-4.8-3.6-8.6-3.6c-3.7,0-6.5,1.2-8.5,3.6c-2,2.4-2.9,5.4-2.9,9v62.4 c0,1.3,0.3,2.5,1,3.6c0.7,1.2,1.6,2.2,2.8,3c1.2,0.9,2.4,1.6,3.6,2.1c1.3,0.5,2.5,0.8,3.8,0.8c2.7,0,5.1-0.9,7.3-2.8 c2.1-1.6,3.3-3.3,3.6-5s0.5-3.8,0.5-6.4v-20.2h-13.5v-14h29.9V129c0,3.2-0.2,6-0.7,8.2c-0.5,2.3-1.6,4.8-3.3,7.6 c-2.7,4.1-6,7.3-10.1,9.6c-4.1,2.3-8.6,3.4-13.4,3.4c-4.4,0-8.6-1-12.7-3.1c-4.1-2.1-7.5-4.8-10.1-8.3c-2.4-3.1-3.9-6.1-4.4-9 c-0.5-2.9-0.8-6.2-0.8-10V69.8c0-4,0.7-7.8,2-11.4c1.3-3.6,3.2-6.7,5.6-9.3c2.4-2.6,5.4-4.7,8.8-6.2c3.5-1.5,7.3-2.2,11.4-2.2 c4.8,0,9.3,1.1,13.2,3.2c4,2.1,7.3,5.2,9.9,9.2c1.8,2.8,3.1,5.3,3.7,7.5c0.6,2.2,0.9,5,0.8,8.4L367.6,74.7L367.6,74.7L367.6,74.7z M424.2,156.8l-4.7-24.7h-21.4l-4.7,24.7h-17.5l25.8-115.1h14.4l25.8,115.1H424.2z M408.8,74.9l-7.8,41.9h15.6L408.8,74.9z M506,156.8V86.8L489.6,136h-8.3l-16.4-49.2v70.1h-16.4V41.7h15.4l21.8,61.1l21.4-61.1h15.4v115.1H506L506,156.8z M590.2,140.2 c-1.4,3.4-3.3,6.3-5.8,8.8c-2.5,2.5-5.4,4.4-8.8,5.8c-3.4,1.4-7.1,2.1-11.3,2.1h-25.3V41.7h27c3.7,0,7.1,0.7,10.3,2.2 c3.2,1.4,6,3.4,8.3,5.9c2.3,2.5,4.2,5.4,5.5,8.6c1.3,3.3,2,6.8,2,10.4v8.8c0,4-1,7.7-3,11c-2,3.3-4.9,5.8-8.6,7.7 c3.8,2.2,6.7,4.8,8.6,7.9c2,3.1,2.9,6.8,2.9,11.3v13.5C592.3,133,591.6,136.8,590.2,140.2z M577.2,68.9c0-3.7-1.2-6.6-3.5-8.6 c-2.4-2-5.3-3.1-8.9-3.1h-9.2v32.1h9.7c4,0,7-1.2,9-3.8c2-2.5,2.9-5.7,2.9-9.5L577.2,68.9L577.2,68.9z M577.2,115.5 c0-3.8-1.2-6.8-3.5-9c-2.3-2.1-5.3-3.2-9-3.2h-9.2v37.5h9.3c3.5,0,6.4-1,8.7-3.1c2.4-2.1,3.5-4.9,3.5-8.5L577.2,115.5L577.2,115.5z M649.2,156.8l-4.7-24.7h-21.4l-4.7,24.7h-17.5l25.8-115.1H641l25.8,115.1H649.2z M633.8,74.9l-7.8,41.9h15.6L633.8,74.9z"/>
</svg>
